<?xml version="1.0" encoding="UTF-8" standalone="no"?>
<!-- Created with Inkscape (http://www.inkscape.org/) -->

<svg
   xmlns:dc="http://purl.org/dc/elements/1.1/"
   xmlns:cc="http://creativecommons.org/ns#"
   xmlns:rdf="http://www.w3.org/1999/02/22-rdf-syntax-ns#"
   xmlns:svg="http://www.w3.org/2000/svg"
   xmlns="http://www.w3.org/2000/svg"
   xmlns:xlink="http://www.w3.org/1999/xlink"
   xmlns:sodipodi="http://sodipodi.sourceforge.net/DTD/sodipodi-0.dtd"
   xmlns:inkscape="http://www.inkscape.org/namespaces/inkscape"
   id="svg3882"
   version="1.1"
   inkscape:version="0.92.2 (unknown)"
   width="48"
   height="48"
   viewBox="0 0 48 48"
   sodipodi:docname="uget-icon.svg"
   inkscape:export-filename="alldebdddd.png"
   inkscape:export-xdpi="90"
   inkscape:export-ydpi="90">
  <metadata
     id="metadata3888">
    <rdf:RDF>
      <cc:Work
         rdf:about="">
        <dc:format>image/svg+xml</dc:format>
        <dc:type
           rdf:resource="http://purl.org/dc/dcmitype/StillImage" />
        <dc:title></dc:title>
      </cc:Work>
    </rdf:RDF>
  </metadata>
  <defs
     id="defs3886">
    <pattern
       id="EMFhbasepattern"
       patternUnits="userSpaceOnUse"
       width="6"
       height="6"
       x="0"
       y="0" />
    <pattern
       id="EMFhbasepattern-5"
       patternUnits="userSpaceOnUse"
       width="6"
       height="6"
       x="0"
       y="0" />
    <filter
       id="filter4258"
       inkscape:label="Drop Shadow"
       style="color-interpolation-filters:sRGB">
      <feFlood
         id="feFlood4260"
         result="flood"
         flood-color="rgb(0,0,0)"
         flood-opacity="0.862745" />
      <feComposite
         id="feComposite4262"
         result="composite1"
         operator="in"
         in2="SourceGraphic"
         in="flood" />
      <feGaussianBlur
         id="feGaussianBlur4264"
         result="blur"
         stdDeviation="13"
         in="composite1" />
      <feOffset
         id="feOffset4266"
         result="offset"
         dy="10.4"
         dx="10.4" />
      <feComposite
         id="feComposite4268"
         result="composite2"
         operator="over"
         in2="offset"
         in="SourceGraphic" />
    </filter>
    <filter
       id="filter4258-7"
       inkscape:label="Drop Shadow"
       style="color-interpolation-filters:sRGB">
      <feFlood
         id="feFlood4260-1"
         result="flood"
         flood-color="rgb(0,0,0)"
         flood-opacity="0.862745" />
      <feComposite
         id="feComposite4262-1"
         result="composite1"
         operator="in"
         in2="SourceGraphic"
         in="flood" />
      <feGaussianBlur
         id="feGaussianBlur4264-7"
         result="blur"
         stdDeviation="13"
         in="composite1" />
      <feOffset
         id="feOffset4266-3"
         result="offset"
         dy="10.4"
         dx="10.4" />
      <feComposite
         id="feComposite4268-7"
         result="composite2"
         operator="over"
         in2="offset"
         in="SourceGraphic" />
    </filter>
    <filter
       id="filter7251">
      <feGaussianBlur
         stdDeviation="2.246"
         id="feGaussianBlur7" />
    </filter>
    <filter
       id="filter7300">
      <feGaussianBlur
         stdDeviation="1.714"
         id="feGaussianBlur10" />
    </filter>
    <filter
       id="filter7863">
      <feGaussianBlur
         stdDeviation=".952"
         id="feGaussianBlur13" />
    </filter>
    <filter
       id="filter7881">
      <feGaussianBlur
         stdDeviation="1.36"
         id="feGaussianBlur16" />
    </filter>
    <filter
       id="filter8074">
      <feGaussianBlur
         stdDeviation="2.026"
         id="feGaussianBlur19" />
    </filter>
    <filter
       id="filter8114">
      <feGaussianBlur
         stdDeviation="1.013"
         id="feGaussianBlur22" />
    </filter>
    <filter
       id="filter8178">
      <feGaussianBlur
         stdDeviation="3.631"
         id="feGaussianBlur25" />
    </filter>
    <filter
       height="1.2817"
       id="filter7233"
       width="1.1476001"
       x="-0.073799998"
       y="-0.1409">
      <feGaussianBlur
         stdDeviation="6.456"
         id="feGaussianBlur28" />
    </filter>
    <filter
       height="1.8480999"
       id="filter14443"
       width="1.2302001"
       x="-0.1151"
       y="-0.42399999">
      <feGaussianBlur
         stdDeviation="3.357"
         id="feGaussianBlur31" />
    </filter>
    <filter
       height="1.4775"
       id="filter14465"
       width="1.2503"
       x="-0.1251"
       y="-0.2387">
      <feGaussianBlur
         stdDeviation="3.233"
         id="feGaussianBlur34" />
    </filter>
    <linearGradient
       id="linearGradient14419">
      <stop
         offset="0"
         stop-color="#fff"
         id="stop37" />
      <stop
         offset="1"
         stop-color="#fff"
         stop-opacity="0"
         id="stop39" />
    </linearGradient>
    <linearGradient
       id="linearGradient8144">
      <stop
         offset="0"
         id="stop42" />
      <stop
         offset="1"
         stop-opacity="0"
         id="stop44" />
    </linearGradient>
    <linearGradient
       id="linearGradient8046">
      <stop
         offset="0"
         stop-color="#d2b77b"
         id="stop47" />
      <stop
         offset=".5"
         stop-color="#ceb476"
         id="stop49" />
      <stop
         offset="1"
         stop-color="#926b32"
         id="stop51" />
    </linearGradient>
    <linearGradient
       id="linearGradient7771">
      <stop
         offset="0"
         stop-color="#fff"
         id="stop54" />
      <stop
         offset="1"
         stop-color="#ffef85"
         stop-opacity="0"
         id="stop56" />
    </linearGradient>
    <linearGradient
       id="linearGradient6170">
      <stop
         offset="0"
         stop-color="#fefdfc"
         id="stop59" />
      <stop
         offset="1"
         stop-color="#dba932"
         id="stop61" />
    </linearGradient>
    <linearGradient
       id="linearGradient6117">
      <stop
         offset="0"
         stop-color="#ede2ca"
         id="stop64" />
      <stop
         offset=".5"
         stop-color="#ceb476"
         id="stop66" />
      <stop
         offset="1"
         stop-color="#926b32"
         id="stop68" />
    </linearGradient>
    <linearGradient
       gradientUnits="userSpaceOnUse"
       id="linearGradient8403"
       x1="89.285004"
       x2="320.7305">
      <stop
         offset="0"
         stop-opacity=".753"
         id="stop71" />
      <stop
         offset="1"
         stop-color="#fff"
         id="stop73" />
    </linearGradient>
    <linearGradient
       gradientUnits="userSpaceOnUse"
       id="linearGradient6376"
       x1="235.78571"
       x2="159.8571"
       xlink:href="#linearGradient8046"
       y1="204.4286"
       y2="122" />
    <linearGradient
       gradientUnits="userSpaceOnUse"
       id="linearGradient8132"
       spreadMethod="repeat"
       x1="60.894699"
       x2="61.275902"
       xlink:href="#linearGradient8046"
       y1="195.4635"
       y2="198.82961" />
    <linearGradient
       gradientUnits="userSpaceOnUse"
       id="linearGradient8140"
       spreadMethod="repeat"
       x1="331.57211"
       x2="331.57571"
       xlink:href="#linearGradient8046"
       y1="194.61011"
       y2="192.091" />
    <linearGradient
       gradientUnits="userSpaceOnUse"
       id="linearGradient8344"
       x1="323.08679"
       x2="-20.4235"
       xlink:href="#linearGradient6117"
       y1="267.43509"
       y2="94.9011" />
    <linearGradient
       gradientUnits="userSpaceOnUse"
       id="linearGradient14425"
       x1="223"
       x2="210"
       xlink:href="#linearGradient14419"
       y1="281.5"
       y2="249.5" />
    <linearGradient
       gradientUnits="userSpaceOnUse"
       id="linearGradient14455"
       x1="209"
       x2="247"
       xlink:href="#linearGradient14419"
       y1="279.5"
       y2="270" />
    <linearGradient
       gradientUnits="userSpaceOnUse"
       id="linearGradient14459"
       x1="212.5"
       x2="244"
       xlink:href="#linearGradient8144"
       y1="284"
       y2="246" />
    <linearGradient
       gradientUnits="userSpaceOnUse"
       id="linearGradient16177"
       x1="254.46359"
       x2="359.59259"
       xlink:href="#linearGradient8046" />
    <mask
       id="mask7935"
       maskUnits="userSpaceOnUse">
      <path
         d="M 255,294.6154 205,245 l 105,-50 50,40 -105,59.6154 z"
         id="path84"
         inkscape:connector-curvature="0"
         style="fill:#ffffff" />
    </mask>
    <mask
       id="mask7941"
       maskUnits="userSpaceOnUse">
      <path
         d="m 160,300 45,-55 -105,-50 -45,45 105,60 z"
         id="path87"
         inkscape:connector-curvature="0"
         style="fill:#ffffff" />
    </mask>
    <mask
       id="mask7947"
       maskUnits="userSpaceOnUse">
      <path
         d="m 205,135 -45,10 -100,55 40,-5 0,100 105,-50 105,50.375 L 310,195 345,195 240,144.625 205,135 Z"
         id="path90"
         inkscape:connector-curvature="0"
         style="fill:#ffffff" />
    </mask>
    <mask
       id="mask8351"
       maskUnits="userSpaceOnUse">
      <path
         d="m 100,195 0,96.875 c 0.4512,4.0533 0.7985,3.649 3.2813,5 l 95.3613,54.4922 c 3.782,1.9859 7.7909,2.8376 12.5098,0.1392 l 92.2852,-52.4048 c 6.3295,-3.5457 6.6848,-6.7851 6.5625,-10 l 0,-94.1016 -105,50 -105,-50 z"
         id="path93"
         inkscape:connector-curvature="0"
         style="fill:#ffffff" />
    </mask>
    <mask
       id="mask8359"
       maskUnits="userSpaceOnUse">
      <path
         d="m 100,195 0,96.875 c 0.4512,4.0533 0.7985,3.649 3.2813,5 l 95.3613,54.4922 c 3.782,1.9859 7.7909,2.8376 12.5098,0.1392 l 92.2852,-52.4048 c 6.3295,-3.5457 6.6848,-6.7851 6.5625,-10 l 0,-94.1016 -105,50 -105,-50 z"
         transform="translate(0,652.3622)"
         id="path96"
         inkscape:connector-curvature="0"
         style="fill:#ffffff" />
    </mask>
    <mask
       id="mask14451"
       maskUnits="userSpaceOnUse">
      <path
         d="m 204,250 3,37 66,-19 -69,-18 z"
         id="path99"
         inkscape:connector-curvature="0"
         style="fill:url(#linearGradient14455);filter:url(#filter14443)" />
    </mask>
    <radialGradient
       cx="202"
       cy="247.5"
       gradientUnits="userSpaceOnUse"
       id="radialGradient8395"
       r="97.5">
      <stop
         offset="0"
         stop-color="#fff"
         id="stop102" />
      <stop
         offset=".5"
         stop-color="#ffcf10"
         id="stop104" />
      <stop
         offset="1"
         stop-color="#ff8f07"
         stop-opacity=".024"
         id="stop106" />
    </radialGradient>
    <radialGradient
       cx="195.54359"
       cy="293.52859"
       gradientTransform="matrix(1.70679,0,0,2.48261,-97.91656,-422.19691)"
       gradientUnits="userSpaceOnUse"
       id="radialGradient6197"
       r="55"
       xlink:href="#linearGradient6117" />
    <radialGradient
       cx="207.2621"
       cy="183.8045"
       gradientTransform="matrix(1.91841,0,0,1.00488,-190.59305,-2.78278)"
       gradientUnits="userSpaceOnUse"
       id="radialGradient6348"
       r="105"
       xlink:href="#linearGradient6170" />
    <radialGradient
       cx="148.1084"
       cy="254.40919"
       gradientTransform="matrix(1.75465,0.47016,-0.32911,1.22825,-16.64945,-117.61267)"
       gradientUnits="userSpaceOnUse"
       id="radialGradient7330"
       r="75"
       xlink:href="#linearGradient6117" />
    <radialGradient
       cx="251"
       cy="198.9062"
       gradientTransform="matrix(1,0,0,0.64268,0,87.47472)"
       gradientUnits="userSpaceOnUse"
       id="radialGradient7807"
       r="77.5"
       xlink:href="#linearGradient7771" />
    <radialGradient
       cx="138.81641"
       cy="224.3744"
       gradientTransform="matrix(1.03433,0.27715,-0.194,0.72403,58.94788,20.5741)"
       gradientUnits="userSpaceOnUse"
       id="radialGradient7811"
       r="75"
       xlink:href="#linearGradient7771" />
    <radialGradient
       cx="152.5"
       cy="220"
       gradientTransform="matrix(2.05848,0,0,1.52928,-161.41868,-116.4426)"
       gradientUnits="userSpaceOnUse"
       id="radialGradient7875"
       r="52.5"
       xlink:href="#linearGradient7771" />
    <radialGradient
       cx="116.3639"
       cy="160.08031"
       gradientTransform="matrix(0.62936,-0.36336,0.02459,0.04259,71.07919,204.19131)"
       gradientUnits="userSpaceOnUse"
       id="radialGradient8056"
       r="75"
       xlink:href="#linearGradient7771" />
    <radialGradient
       cx="116.3639"
       cy="160.08031"
       gradientTransform="matrix(0.61773,-0.3828,0.09216,0.14872,61.61581,189.46412)"
       gradientUnits="userSpaceOnUse"
       id="radialGradient8064"
       r="75"
       xlink:href="#linearGradient14419" />
    <radialGradient
       cx="152.5"
       cy="165"
       gradientTransform="matrix(1,0,0,0.57143,0,70.71429)"
       gradientUnits="userSpaceOnUse"
       id="radialGradient8072"
       r="52.5"
       xlink:href="#linearGradient14419" />
    <radialGradient
       cx="259.51361"
       cy="112.0467"
       gradientTransform="matrix(0.67018,0.30379,-0.02864,0.06317,89.77673,80.79148)"
       gradientUnits="userSpaceOnUse"
       id="radialGradient8080"
       r="77.5"
       xlink:href="#linearGradient7771" />
    <radialGradient
       cx="257.5"
       cy="165"
       gradientTransform="matrix(1,0,0,0.58716,0,68.11927)"
       gradientUnits="userSpaceOnUse"
       id="radialGradient8092"
       r="54.5"
       xlink:href="#linearGradient14419" />
    <radialGradient
       cx="200"
       cy="292"
       gradientTransform="matrix(0.22350678,0,0,0.08776888,19.750946,226.66821)"
       gradientUnits="userSpaceOnUse"
       id="radialGradient8150"
       r="219"
       xlink:href="#linearGradient8144" />
    <radialGradient
       cx="202"
       cy="228"
       gradientUnits="userSpaceOnUse"
       id="radialGradient8393"
       r="232.12469"
       xlink:href="#linearGradient7771" />
    <radialGradient
       cx="257.5"
       cy="220"
       gradientTransform="matrix(1.9368,0,0,1.46264,-241.22553,-101.78129)"
       gradientUnits="userSpaceOnUse"
       id="radialGradient8399"
       r="55.131599"
       xlink:href="#linearGradient7771" />
    <radialGradient
       cx="177.47701"
       cy="292.05341"
       gradientTransform="matrix(1.70679,0,0,2.48261,-97.91656,-422.19691)"
       gradientUnits="userSpaceOnUse"
       id="radialGradient8405"
       r="55"
       xlink:href="#linearGradient6170" />
    <radialGradient
       cx="303.7291"
       cy="282.97379"
       gradientTransform="matrix(2.69441,-1.62379,0.54787,0.9091,-669.67482,518.91511)"
       gradientUnits="userSpaceOnUse"
       id="radialGradient8412"
       r="13.1083"
       xlink:href="#linearGradient14419" />
    <radialGradient
       inkscape:collect="always"
       xlink:href="#linearGradient6170"
       id="radialGradient3095"
       gradientUnits="userSpaceOnUse"
       gradientTransform="matrix(1.91841,0,0,1.00488,-190.59305,-2.78278)"
       cx="207.2621"
       cy="183.8045"
       r="105" />
    <radialGradient
       inkscape:collect="always"
       xlink:href="#linearGradient7771"
       id="radialGradient3143"
       gradientUnits="userSpaceOnUse"
       cx="202"
       cy="228"
       r="232.12469" />
    <radialGradient
       inkscape:collect="always"
       xlink:href="#radialGradient8395"
       id="radialGradient3145"
       gradientUnits="userSpaceOnUse"
       cx="202"
       cy="247.5"
       r="97.5" />
    <radialGradient
       inkscape:collect="always"
       xlink:href="#linearGradient7771"
       id="radialGradient3147"
       gradientUnits="userSpaceOnUse"
       cx="202"
       cy="228"
       r="232.12469" />
    <radialGradient
       inkscape:collect="always"
       xlink:href="#radialGradient8395"
       id="radialGradient3149"
       gradientUnits="userSpaceOnUse"
       cx="202"
       cy="247.5"
       r="97.5" />
    <linearGradient
       gradientUnits="userSpaceOnUse"
       id="linearGradient2487"
       x1="21.375"
       x2="32.5"
       y1="23.87895"
       y2="25.50395">
      <stop
         offset="0"
         stop-color="#f57900"
         id="stop7" />
      <stop
         offset="1"
         stop-color="#c66100"
         id="stop9" />
    </linearGradient>
    <radialGradient
       inkscape:collect="always"
       xlink:href="#radialGradient8395-1"
       id="radialGradient3149-9"
       gradientUnits="userSpaceOnUse"
       cx="202"
       cy="247.5"
       r="97.5" />
    <radialGradient
       cx="202"
       cy="247.5"
       gradientUnits="userSpaceOnUse"
       id="radialGradient8395-1"
       r="97.5">
      <stop
         offset="0"
         stop-color="#fff"
         id="stop102-2" />
      <stop
         offset=".5"
         stop-color="#ffcf10"
         id="stop104-7" />
      <stop
         offset="1"
         stop-color="#ff8f07"
         stop-opacity=".024"
         id="stop106-0" />
    </radialGradient>
    <filter
       inkscape:collect="always"
       style="color-interpolation-filters:sRGB"
       id="filter4222"
       x="-0.012023983"
       width="1.024048"
       y="-0.011976113"
       height="1.0239522">
      <feGaussianBlur
         inkscape:collect="always"
         stdDeviation="0.27482341"
         id="feGaussianBlur4224" />
    </filter>
    <filter
       id="filter7251-3">
      <feGaussianBlur
         id="feGaussianBlur7-6"
         stdDeviation="2.246" />
    </filter>
    <filter
       id="filter7300-7">
      <feGaussianBlur
         id="feGaussianBlur10-5"
         stdDeviation="1.714" />
    </filter>
    <filter
       id="filter7863-3">
      <feGaussianBlur
         id="feGaussianBlur13-5"
         stdDeviation=".952" />
    </filter>
    <filter
       id="filter7881-6">
      <feGaussianBlur
         id="feGaussianBlur16-2"
         stdDeviation="1.36" />
    </filter>
    <filter
       id="filter8074-9">
      <feGaussianBlur
         id="feGaussianBlur19-1"
         stdDeviation="2.026" />
    </filter>
    <filter
       id="filter8114-2">
      <feGaussianBlur
         id="feGaussianBlur22-7"
         stdDeviation="1.013" />
    </filter>
    <filter
       id="filter8178-0">
      <feGaussianBlur
         id="feGaussianBlur25-9"
         stdDeviation="3.631" />
    </filter>
    <filter
       y="-.1409"
       x="-.0738"
       width="1.1476"
       id="filter7233-3"
       height="1.2817">
      <feGaussianBlur
         id="feGaussianBlur28-6"
         stdDeviation="6.456" />
    </filter>
    <filter
       y="-.424"
       x="-.1151"
       width="1.2302"
       id="filter14443-0"
       height="1.8481">
      <feGaussianBlur
         id="feGaussianBlur31-6"
         stdDeviation="3.357" />
    </filter>
    <filter
       y="-.2387"
       x="-.1251"
       width="1.2503"
       id="filter14465-2"
       height="1.4775">
      <feGaussianBlur
         id="feGaussianBlur34-6"
         stdDeviation="3.233" />
    </filter>
    <linearGradient
       x2="320.7305"
       x1="89.285"
       id="linearGradient8403-9"
       gradientUnits="userSpaceOnUse">
      <stop
         id="stop71-7"
         stop-opacity=".753"
         offset="0" />
      <stop
         id="stop73-3"
         stop-color="#fff"
         offset="1" />
    </linearGradient>
    <linearGradient
       y2="122"
       y1="204.4286"
       xlink:href="#linearGradient8046"
       x2="159.8571"
       x1="235.7857"
       id="linearGradient4049"
       gradientUnits="userSpaceOnUse" />
    <linearGradient
       y2="198.8296"
       y1="195.4635"
       xlink:href="#linearGradient8046"
       x2="61.2759"
       x1="60.8947"
       spreadMethod="repeat"
       id="linearGradient4051"
       gradientUnits="userSpaceOnUse" />
    <linearGradient
       y2="192.091"
       y1="194.6101"
       xlink:href="#linearGradient8046"
       x2="331.5757"
       x1="331.5721"
       spreadMethod="repeat"
       id="linearGradient4053"
       gradientUnits="userSpaceOnUse" />
    <linearGradient
       y2="94.9011"
       y1="267.4351"
       xlink:href="#linearGradient6117"
       x2="-20.4235"
       x1="323.0868"
       id="linearGradient4055"
       gradientUnits="userSpaceOnUse" />
    <linearGradient
       y2="249.5"
       y1="281.5"
       xlink:href="#linearGradient14419"
       x2="210"
       x1="223"
       id="linearGradient4057"
       gradientUnits="userSpaceOnUse" />
    <linearGradient
       y2="270"
       y1="279.5"
       xlink:href="#linearGradient14419"
       x2="247"
       x1="209"
       id="linearGradient4059"
       gradientUnits="userSpaceOnUse" />
    <linearGradient
       y2="246"
       y1="284"
       xlink:href="#linearGradient8144"
       x2="244"
       x1="212.5"
       id="linearGradient4061"
       gradientUnits="userSpaceOnUse" />
    <linearGradient
       xlink:href="#linearGradient8046"
       x2="359.5926"
       x1="254.4636"
       id="linearGradient16177-6"
       gradientUnits="userSpaceOnUse" />
    <mask
       maskUnits="userSpaceOnUse"
       id="mask7935-1">
      <path
         id="path84-2"
         fill="#fff"
         d="m255,294.6154-50-49.6154 105-50 50,40-105,59.6154z" />
    </mask>
    <mask
       maskUnits="userSpaceOnUse"
       id="mask7941-9">
      <path
         id="path87-3"
         fill="#fff"
         d="m160,300 45-55-105-50-45,45 105,60z" />
    </mask>
    <mask
       maskUnits="userSpaceOnUse"
       id="mask7947-1">
      <path
         id="path90-9"
         fill="#fff"
         d="m205,135-45,10-100,55 40-5v100l105-50 105,50.375v-100.375h35l-105-50.375-35-9.625z" />
    </mask>
    <mask
       maskUnits="userSpaceOnUse"
       id="mask8351-4">
      <path
         id="path93-7"
         fill="#fff"
         d="m100,195v96.875c.4512,4.0533.7985,3.649 3.2813,5l95.3613,54.4922c3.782,1.9859 7.7909,2.8376 12.5098.1392l92.2852-52.4048c6.3295-3.5457 6.6848-6.7851 6.5625-10v-94.1016l-105,50-105-50z" />
    </mask>
    <mask
       maskUnits="userSpaceOnUse"
       id="mask8359-8">
      <path
         id="path96-4"
         transform="translate(0,652.3622)"
         fill="#fff"
         d="m100,195v96.875c.4512,4.0533.7985,3.649 3.2813,5l95.3613,54.4922c3.782,1.9859 7.7909,2.8376 12.5098.1392l92.2852-52.4048c6.3295-3.5457 6.6848-6.7851 6.5625-10v-94.1016l-105,50-105-50z" />
    </mask>
    <mask
       maskUnits="userSpaceOnUse"
       id="mask14451-5">
      <path
         style="filter:url(#filter14443-0)"
         id="path99-0"
         filter="url(#filter14443)"
         fill="url(#linearGradient14455)"
         d="m204,250 3,37 66-19-69-18z" />
    </mask>
    <radialGradient
       r="97.5"
       id="radialGradient8395-3"
       gradientUnits="userSpaceOnUse"
       cy="247.5"
       cx="202">
      <stop
         id="stop102-6"
         stop-color="#fff"
         offset="0" />
      <stop
         id="stop104-1"
         stop-color="#ffcf10"
         offset=".5" />
      <stop
         id="stop106-06"
         stop-opacity=".024"
         stop-color="#ff8f07"
         offset="1" />
    </radialGradient>
    <radialGradient
       xlink:href="#linearGradient6117"
       r="55"
       id="radialGradient6197-3"
       gradientUnits="userSpaceOnUse"
       gradientTransform="matrix(1.70679,0,0,2.48261,-97.91656,-422.19691)"
       cy="293.5286"
       cx="195.5436" />
    <radialGradient
       xlink:href="#linearGradient6170"
       r="105"
       id="radialGradient6348-2"
       gradientUnits="userSpaceOnUse"
       gradientTransform="matrix(1.91841,0,0,1.00488,-190.59305,-2.78278)"
       cy="183.8045"
       cx="207.2621" />
    <radialGradient
       xlink:href="#linearGradient6117"
       r="75"
       id="radialGradient7330-0"
       gradientUnits="userSpaceOnUse"
       gradientTransform="matrix(1.75465,.47016,-.32911,1.22825,-16.64945,-117.61267)"
       cy="254.4092"
       cx="148.1084" />
    <radialGradient
       xlink:href="#linearGradient7771"
       r="77.5"
       id="radialGradient7807-6"
       gradientUnits="userSpaceOnUse"
       gradientTransform="matrix(1,0,0,.64268,0,87.47472)"
       cy="198.9062"
       cx="251" />
    <radialGradient
       xlink:href="#linearGradient7771"
       r="75"
       id="radialGradient7811-1"
       gradientUnits="userSpaceOnUse"
       gradientTransform="matrix(1.03433,.27715,-.194,.72403,58.94788,20.5741)"
       cy="224.3744"
       cx="138.8164" />
    <radialGradient
       xlink:href="#linearGradient7771"
       r="52.5"
       id="radialGradient7875-5"
       gradientUnits="userSpaceOnUse"
       gradientTransform="matrix(2.05848,0,0,1.52928,-161.41868,-116.4426)"
       cy="220"
       cx="152.5" />
    <radialGradient
       xlink:href="#linearGradient7771"
       r="75"
       id="radialGradient8056-5"
       gradientUnits="userSpaceOnUse"
       gradientTransform="matrix(.62936,-.36336,.02459,.04259,71.07919,204.19131)"
       cy="160.0803"
       cx="116.3639" />
    <radialGradient
       xlink:href="#linearGradient14419"
       r="75"
       id="radialGradient8064-4"
       gradientUnits="userSpaceOnUse"
       gradientTransform="matrix(.61773,-.3828,.09216,.14872,61.61581,189.46412)"
       cy="160.0803"
       cx="116.3639" />
    <radialGradient
       xlink:href="#linearGradient14419"
       r="52.5"
       id="radialGradient8072-7"
       gradientUnits="userSpaceOnUse"
       gradientTransform="matrix(1,0,0,.57143,0,70.71429)"
       cy="165"
       cx="152.5" />
    <radialGradient
       xlink:href="#linearGradient7771"
       r="77.5"
       id="radialGradient8080-6"
       gradientUnits="userSpaceOnUse"
       gradientTransform="matrix(.67018,.30379,-.02864,.06317,89.77673,80.79148)"
       cy="112.0467"
       cx="259.5136" />
    <radialGradient
       xlink:href="#linearGradient14419"
       r="54.5"
       id="radialGradient8092-5"
       gradientUnits="userSpaceOnUse"
       gradientTransform="matrix(1,0,0,.58716,0,68.11927)"
       cy="165"
       cx="257.5" />
    <radialGradient
       xlink:href="#linearGradient8144"
       r="219"
       id="radialGradient8150-6"
       gradientUnits="userSpaceOnUse"
       gradientTransform="matrix(0.08844613,0,0,0.03383729,4.1722341,22.788625)"
       cy="292"
       cx="200" />
    <radialGradient
       xlink:href="#linearGradient7771"
       r="232.1247"
       id="radialGradient8393-9"
       gradientUnits="userSpaceOnUse"
       cy="228"
       cx="202" />
    <radialGradient
       xlink:href="#linearGradient7771"
       r="55.1316"
       id="radialGradient8399-3"
       gradientUnits="userSpaceOnUse"
       gradientTransform="matrix(1.9368,0,0,1.46264,-241.22553,-101.78129)"
       cy="220"
       cx="257.5" />
    <radialGradient
       xlink:href="#linearGradient6170"
       r="55"
       id="radialGradient8405-7"
       gradientUnits="userSpaceOnUse"
       gradientTransform="matrix(1.70679,0,0,2.48261,-97.91656,-422.19691)"
       cy="292.0534"
       cx="177.477" />
    <radialGradient
       xlink:href="#linearGradient14419"
       r="13.1083"
       id="radialGradient8412-4"
       gradientUnits="userSpaceOnUse"
       gradientTransform="matrix(2.69441,-1.62379,.54787,.9091,-669.67482,518.91511)"
       cy="282.9738"
       cx="303.7291" />
    <radialGradient
       r="105"
       cy="183.8045"
       cx="207.2621"
       gradientTransform="matrix(1.91841,0,0,1.00488,-190.59305,-2.78278)"
       gradientUnits="userSpaceOnUse"
       id="radialGradient3095-5"
       xlink:href="#linearGradient6170"
       inkscape:collect="always" />
    <radialGradient
       r="232.1247"
       cy="228"
       cx="202"
       gradientUnits="userSpaceOnUse"
       id="radialGradient3143-2"
       xlink:href="#linearGradient7771"
       inkscape:collect="always" />
    <radialGradient
       r="97.5"
       cy="247.5"
       cx="202"
       gradientUnits="userSpaceOnUse"
       id="radialGradient3145-5"
       xlink:href="#radialGradient8395-3"
       inkscape:collect="always" />
    <radialGradient
       r="232.1247"
       cy="228"
       cx="202"
       gradientUnits="userSpaceOnUse"
       id="radialGradient3147-4"
       xlink:href="#linearGradient7771"
       inkscape:collect="always" />
    <radialGradient
       r="97.5"
       cy="247.5"
       cx="202"
       gradientUnits="userSpaceOnUse"
       id="radialGradient3149-7"
       xlink:href="#radialGradient8395-3"
       inkscape:collect="always" />
    <radialGradient
       r="97.5"
       cy="247.5"
       cx="202"
       gradientUnits="userSpaceOnUse"
       id="radialGradient3149-9-3"
       xlink:href="#radialGradient8395-1-0"
       inkscape:collect="always" />
    <radialGradient
       r="97.5"
       id="radialGradient8395-1-0"
       gradientUnits="userSpaceOnUse"
       cy="247.5"
       cx="202">
      <stop
         id="stop102-2-7"
         stop-color="#fff"
         offset="0" />
      <stop
         id="stop104-7-8"
         stop-color="#ffcf10"
         offset=".5" />
      <stop
         id="stop106-0-6"
         stop-opacity=".024"
         stop-color="#ff8f07"
         offset="1" />
    </radialGradient>
    <linearGradient
       x1="45.448"
       y1="92.54"
       gradientTransform="scale(1.0059,0.99417)"
       x2="45.448"
       gradientUnits="userSpaceOnUse"
       y2="7.0165"
       id="ButtonShadow">
      <stop
         offset="0"
         id="stop3750" />
      <stop
         offset="1"
         style="stop-opacity:.58824"
         id="stop3752" />
    </linearGradient>
    <filter
       id="filter3174">
      <feGaussianBlur
         stdDeviation="1.71"
         id="feGaussianBlur3176" />
    </filter>
    <linearGradient
       x1="36.357"
       y1="6"
       x2="36.357"
       gradientUnits="userSpaceOnUse"
       xlink:href="#linearGradient14419"
       y2="63.893"
       id="linearGradient3188" />
    <filter
       x="-.192"
       y="-.192"
       width="1.384"
       height="1.384"
       id="filter3794">
      <feGaussianBlur
         stdDeviation="5.28"
         id="feGaussianBlur3796" />
    </filter>
    <linearGradient
       x1="48"
       y1="20.221"
       x2="48"
       gradientUnits="userSpaceOnUse"
       xlink:href="#linearGradient14419"
       y2="138.66"
       id="linearGradient3613" />
    <radialGradient
       r="42"
       gradientTransform="matrix(1.1573,0,0,0.99591,-7.551,0.19713)"
       cx="48"
       cy="90.172"
       gradientUnits="userSpaceOnUse"
       xlink:href="#linearGradient14419"
       id="radialGradient3619" />
    <clipPath
       clipPathUnits="userSpaceOnUse"
       id="clipPath3613">
      <rect
         x="6"
         y="6"
         width="84"
         height="84"
         ry="6"
         rx="6"
         style="fill:#fff"
         id="rect3615" />
    </clipPath>
    <linearGradient
       x1="48"
       y1="90"
       x2="48"
       gradientUnits="userSpaceOnUse"
       y2="5.9877"
       id="linearGradient3617">
      <stop
         offset="0"
         style="stop-color:#50a925"
         id="stop3702" />
      <stop
         offset="1"
         style="stop-color:#88cd5a"
         id="stop3704" />
    </linearGradient>
    <linearGradient
       x1="45.448"
       y1="92.54"
       gradientTransform="matrix(1.0059 0 0 .99417 100 0)"
       x2="45.448"
       gradientUnits="userSpaceOnUse"
       y2="7.0165"
       id="ButtonShadow-0">
      <stop
         offset="0"
         id="stop3750-8" />
      <stop
         offset="1"
         style="stop-opacity:.58824"
         id="stop3752-5" />
    </linearGradient>
    <linearGradient
       x1="32.251"
       y1="6.1317"
       gradientTransform="matrix(1.0238,0,0,1.0119,-1.1429,-98.071)"
       x2="32.251"
       gradientUnits="userSpaceOnUse"
       xlink:href="#ButtonShadow-0"
       y2="90.239"
       id="linearGradient3780" />
    <linearGradient
       x1="32.251"
       y1="6.1317"
       gradientTransform="translate(0,-97)"
       x2="32.251"
       gradientUnits="userSpaceOnUse"
       xlink:href="#ButtonShadow-0"
       y2="90.239"
       id="linearGradient3721" />
    <linearGradient
       x1="49.924"
       y1="20"
       gradientTransform="matrix(1.0059,0,0,0.99417,100,0)"
       x2="51.076"
       gradientUnits="userSpaceOnUse"
       y2="72"
       id="linearGradient3899">
      <stop
         offset="0"
         style="stop-color:#1e6318"
         id="stop3903" />
      <stop
         offset="1"
         style="stop-color:#288521"
         id="stop3905" />
    </linearGradient>
    <linearGradient
       inkscape:collect="always"
       xlink:href="#ButtonShadow-0"
       id="linearGradient4083"
       gradientUnits="userSpaceOnUse"
       gradientTransform="matrix(1.0238,0,0,1.0119,-1.1429,-98.071)"
       x1="32.251"
       y1="6.1317"
       x2="32.251"
       y2="90.239" />
    <linearGradient
       inkscape:collect="always"
       xlink:href="#ButtonShadow-0"
       id="linearGradient4085"
       gradientUnits="userSpaceOnUse"
       gradientTransform="matrix(1.0238,0,0,1.0119,-1.1429,-98.071)"
       x1="32.251"
       y1="6.1317"
       x2="32.251"
       y2="90.239" />
    <linearGradient
       inkscape:collect="always"
       xlink:href="#ButtonShadow-0"
       id="linearGradient4087"
       gradientUnits="userSpaceOnUse"
       gradientTransform="matrix(1.0238,0,0,1.0119,-1.1429,-98.071)"
       x1="32.251"
       y1="6.1317"
       x2="32.251"
       y2="90.239" />
  </defs>
  <sodipodi:namedview
     pagecolor="#ffffff"
     bordercolor="#666666"
     borderopacity="1"
     objecttolerance="10"
     gridtolerance="10"
     guidetolerance="10"
     inkscape:pageopacity="0"
     inkscape:pageshadow="2"
     inkscape:window-width="1360"
     inkscape:window-height="710"
     id="namedview3884"
     showgrid="true"
     inkscape:zoom="7.9999996"
     inkscape:cx="32.871166"
     inkscape:cy="20.985721"
     inkscape:window-x="0"
     inkscape:window-y="0"
     inkscape:window-maximized="1"
     inkscape:current-layer="svg3882">
    <inkscape:grid
       type="xygrid"
       id="grid4822" />
  </sodipodi:namedview>
  <path
     sodipodi:nodetypes="ccccc"
     d="m 2.4306832,2.2207775 54.8550508,0 c 0,55.0743115 0,0 0,55.0743115 l -54.8550508,0 z"
     id="path4226"
     inkscape:connector-curvature="0"
     style="fill:#2f2f2f;fill-opacity:1;paint-order:stroke fill markers;filter:url(#filter4222)"
     transform="matrix(0.84180563,0,0,0.83814661,-1.0244345,-0.65227651)" />
  <g
     inkscape:groupmode="layer"
     id="layer1"
     inkscape:label="Layer 1"
     style="display:inline"
     transform="translate(0,-12)" />
  <path
     style="fill:#1a1a1a;fill-opacity:1;paint-order:stroke fill markers;filter:url(#filter4222)"
     inkscape:connector-curvature="0"
     id="path4196"
     d="m 2.4306832,2.2207775 54.8550508,0 c 0,55.0743115 0,0 0,55.0743115 l -54.8550508,0 z"
     sodipodi:nodetypes="ccccc"
     transform="matrix(0.84180563,0,0,0.83814661,-1.0244345,-0.65227651)" />
  <path
     sodipodi:nodetypes="ccccc"
     d="m 0.78168221,0.96023585 46.17729079,0 c 0,46.16034715 0,0 0,46.16034715 l -46.17729079,0 z"
     id="path4383"
     inkscape:connector-curvature="0"
     style="fill:#007700;fill-opacity:1;paint-order:stroke fill markers" />
  <rect
     style="opacity:1;fill:#00aa00;fill-opacity:1;stroke:none;stroke-width:1;stroke-linecap:square;stroke-linejoin:bevel;stroke-miterlimit:4;stroke-dasharray:none;stroke-opacity:0.95294118"
     id="rect3912"
     width="41.451096"
     height="41.246784"
     x="3.0656407"
     y="3.3997779" />
  <rect
     style="opacity:1;fill:#00c000;fill-opacity:1;stroke:none;stroke-width:1;stroke-linecap:square;stroke-linejoin:bevel;stroke-miterlimit:4;stroke-dasharray:none;stroke-opacity:0.95294118"
     id="rect4289"
     width="38.197762"
     height="37.62278"
     x="5"
     y="5.3772197" />
  <g
     id="layer2"
     style="display:none"
     transform="translate(-120.9238,-21.08128)">
    <rect
       id="rect3745"
       style="opacity:0.9;fill:url(#ButtonShadow);filter:url(#filter3174)"
       rx="6"
       ry="6"
       height="85"
       width="86"
       y="7"
       x="5" />
  </g>
  <g
     id="layer3"
     transform="translate(-120.9238,-21.08128)">
    <path
       inkscape:connector-curvature="0"
       id="path3786"
       style="opacity:0.07999998;fill:url(#linearGradient4083)"
       d="m 12,-95.031 c -5.5111,0 -10.031,4.5202 -10.031,10.031 v 71 c 0,5.5111 4.5202,10.031 10.031,10.031 h 72 c 5.5111,0 10.031,-4.5202 10.031,-10.031 v -71 c 0,-5.5111 -4.5202,-10.031 -10.031,-10.031 z"
       transform="scale(1,-1)" />
    <path
       inkscape:connector-curvature="0"
       id="path3778"
       style="opacity:0.1;fill:url(#linearGradient4085)"
       d="m 12,-94.031 c -4.9716,0 -9.0312,4.0596 -9.0312,9.0312 v 71 c 0,4.9716 4.0596,9.0312 9.0312,9.0312 h 72 c 4.9716,0 9.0312,-4.0596 9.0312,-9.0312 v -71 c 0,-4.9716 -4.0596,-9.0312 -9.0312,-9.0312 z"
       transform="scale(1,-1)" />
    <path
       inkscape:connector-curvature="0"
       id="path3770"
       style="opacity:0.2;fill:url(#linearGradient4087)"
       d="m 12,-93 c -4.4091,0 -8,3.5909 -8,8 v 71 c 0,4.4091 3.5909,8 8,8 h 72 c 4.4091,0 8,-3.5909 8,-8 v -71 c 0,-4.4091 -3.5909,-8 -8,-8 z"
       transform="scale(1,-1)" />
    <rect
       id="rect3723"
       style="opacity:0.3;fill:url(#linearGradient3780)"
       transform="scale(1,-1)"
       rx="7"
       ry="7"
       height="85"
       width="86"
       y="-92"
       x="5" />
    <rect
       id="rect3716"
       ry="6"
       style="opacity:0.45;fill:url(#linearGradient3721)"
       rx="6"
       transform="scale(1,-1)"
       height="84"
       width="84"
       y="-91"
       x="6" />
  </g>
  <g
     id="layer1-3"
     transform="translate(-120.9238,-21.08128)">
    <rect
       id="rect2419"
       style="fill:url(#linearGradient3617)"
       rx="6"
       ry="6"
       height="84"
       width="84"
       y="6"
       x="6" />
    <path
       inkscape:connector-curvature="0"
       id="rect3728"
       style="opacity:0.5;fill:url(#linearGradient3188)"
       d="M 12,6 C 8.676,6 6,8.676 6,12 v 2 68 2 c 0,0.33472 0.04135,0.6507 0.09375,0.96875 0.0487,0.2956 0.09704,0.59692 0.1875,0.875 0.00988,0.03038 0.020892,0.0636 0.03125,0.09375 0.098865,0.28777 0.23488,0.54745 0.375,0.8125 0.14459,0.27351 0.31562,0.53562 0.5,0.78125 0.18438,0.24564 0.37378,0.47347 0.59375,0.6875 0.43995,0.42806 0.94291,0.81453 1.5,1.0938 0.27854,0.13961 0.57347,0.24695 0.875,0.34375 -0.2562,-0.10022 -0.48671,-0.23627 -0.71875,-0.375 -0.00741,-0.0044 -0.023866,0.0045 -0.03125,0 C 9.374317,89.262 9.343957,89.23879 9.3125,89.2188 9.1921,89.1421 9.08148,89.05529 8.96875,88.9688 8.86258,88.888 8.75547,88.80769 8.65625,88.7188 c -0.1778,-0.162 -0.3473,-0.346 -0.4999,-0.531 -0.1075,-0.131 -0.2183,-0.266 -0.3124,-0.407 -0.0251,-0.038 -0.0385,-0.086 -0.0626,-0.125 -0.0647,-0.103 -0.1302,-0.204 -0.1874,-0.312 -0.1011,-0.195 -0.2057,-0.416 -0.2813,-0.625 -0.008,-0.022 -0.0236,-0.041 -0.0313,-0.063 -0.0318,-0.092 -0.0358,-0.187 -0.0624,-0.281 -0.0304,-0.107 -0.0704,-0.203 -0.0938,-0.313 -0.0729,-0.341 -0.125,-0.698 -0.125,-1.062 v -2 -68 -2 c 0,-2.782 2.2182,-5 5,-5 h 2 68 2 c 2.7818,0 5,2.2182 5,5 v 2 68 2 c 0,0.3643 -0.05212,0.72099 -0.125,1.0625 -0.04415,0.20689 -0.08838,0.39766 -0.15625,0.59375 -0.0077,0.02195 -0.0233,0.04069 -0.03125,0.0625 -0.06274,0.17374 -0.13838,0.36745 -0.21875,0.53125 -0.04158,0.0828 -0.07904,0.16995 -0.125,0.25 -0.0546,0.09721 -0.12677,0.18835 -0.1875,0.28125 -0.09411,0.14096 -0.20492,0.276 -0.3125,0.40625 -0.14317,0.17445 -0.30314,0.347 -0.46875,0.5 -0.01117,0.0102 -0.01998,0.02115 -0.03125,0.03125 -0.13839,0.12556 -0.28509,0.23444 -0.4375,0.34375 -0.10257,0.07315 -0.20432,0.15336 -0.3125,0.21875 -0.0074,0.0045 -0.02384,-0.0044 -0.03125,0 -0.23204,0.13873 -0.46255,0.27478 -0.71875,0.375 0.30153,-0.0968 0.59646,-0.20414 0.875,-0.34375 0.55709,-0.27922 1.0601,-0.66569 1.5,-1.0938 0.21997,-0.21403 0.40937,-0.44186 0.59375,-0.6875 0.18438,-0.24564 0.35541,-0.50774 0.5,-0.78125 0.14012,-0.26505 0.27614,-0.52473 0.375,-0.8125 0.01041,-0.03078 0.02133,-0.06274 0.03125,-0.09375 0.09046,-0.27808 0.1388,-0.5794 0.1875,-0.875 0.053,-0.318 0.094,-0.634 0.094,-0.969 v -2 -68 -2 c 0,-3.324 -2.676,-6 -6,-6 h -72 z" />
    <path
       inkscape:connector-curvature="0"
       id="path3615"
       style="opacity:0.2;fill:url(#radialGradient3619)"
       d="M 12,90 C 8.676,90 6,87.324 6,84 V 82 14 12 c 0,-0.33472 0.04135,-0.6507 0.09375,-0.96875 0.0487,-0.2956 0.09704,-0.59692 0.1875,-0.875 0.0099,-0.03 0.0209,-0.063 0.0313,-0.094 0.0989,-0.2873 0.2349,-0.547 0.375,-0.812 0.1446,-0.2735 0.3156,-0.5356 0.5,-0.7812 0.1844,-0.2457 0.3738,-0.4735 0.5937,-0.6876 0.44,-0.428 0.943,-0.8145 1.5,-1.0937 0.2786,-0.1396 0.5735,-0.2469 0.8748,-0.3437 -0.256,0.1002 -0.4865,0.2362 -0.7185,0.375 -0.00741,0.0044 -0.023866,-0.0045 -0.03125,0 -0.031933,0.0193 -0.062293,0.04251 -0.09375,0.0625 -0.1204,0.0767 -0.23102,0.16351 -0.34375,0.25 -0.10617,0.0808 -0.21328,0.16111 -0.3125,0.25 -0.1779,0.1614 -0.3474,0.3453 -0.5,0.5312 -0.1075,0.1303 -0.2183,0.2653 -0.3124,0.4063 -0.0251,0.0383 -0.0385,0.0858 -0.0626,0.125 -0.0647,0.103 -0.1302,0.2045 -0.1874,0.3124 -0.1011,0.1948 -0.2057,0.4158 -0.2813,0.625 -0.008,0.0219 -0.0236,0.0406 -0.0313,0.0626 -0.0318,0.0919 -0.0358,0.1868 -0.0624,0.2812 -0.0304,0.1066 -0.0704,0.203 -0.0938,0.3125 -0.0729,0.3415 -0.125,0.6985 -0.125,1.0625 v 2 68 2 c 0,2.7818 2.2182,5 5,5 h 2 68 2 c 2.7818,0 5,-2.2182 5,-5 v -2 -68 -2 c 0,-0.364 -0.052,-0.721 -0.125,-1.0625 -0.044,-0.2069 -0.088,-0.3977 -0.156,-0.5937 -0.008,-0.022 -0.024,-0.0407 -0.031,-0.0626 -0.063,-0.1737 -0.139,-0.3674 -0.219,-0.5312 -0.042,-0.0828 -0.079,-0.17 -0.125,-0.25 -0.055,-0.0972 -0.127,-0.1884 -0.188,-0.2812 -0.094,-0.141 -0.205,-0.276 -0.312,-0.4063 -0.143,-0.1745 -0.303,-0.347 -0.469,-0.5 -0.011,-0.0102 -0.02,-0.0211 -0.031,-0.0313 -0.139,-0.1255 -0.285,-0.2344 -0.438,-0.3437 -0.102,-0.0731 -0.204,-0.1534 -0.312,-0.2187 -0.0074,-0.0045 -0.02384,0.0044 -0.03125,0 -0.23204,-0.13873 -0.46255,-0.27478 -0.71875,-0.375 0.30153,0.0968 0.59646,0.20414 0.875,0.34375 0.55709,0.27922 1.0601,0.66569 1.5,1.0938 0.21997,0.21403 0.40937,0.44186 0.59375,0.6875 0.18438,0.24564 0.35541,0.50774 0.5,0.78125 0.14012,0.26505 0.27614,0.52473 0.375,0.8125 0.01041,0.03078 0.02133,0.06274 0.03125,0.09375 0.09046,0.27808 0.1388,0.5794 0.1875,0.875 0.053,0.318 0.094,0.634 0.094,0.969 v 2 68 2 c 0,3.324 -2.676,6 -6,6 h -72 z" />
  </g>
  <g
     style="fill:#666666;stroke:none;stroke-opacity:1;"
     transform="matrix(0.47058668,0,0,0.48136568,1.3887509,0.04167478)"
     id="g4107">
    <path
       d="m 37.424,76.139 c -2.3122,-0.94329 -7.5,-5.9192 -7.5,-7.1937 0,-0.475 -2.6216,-0.86364 -5.8257,-0.86364 -4.7966,0 -6.2098,-0.40886 -8,-2.3144 -2.0055,-2.1347 -2.1743,-3.3384 -2.1743,-15.5 v -13.186 h 5 5 v 10.5 10.5 h 2.5 2.5 l 0.0354,-14.75 c 0.0382,-15.897 0.44398,-17.496 5.4374,-21.416 2.8821,-2.2627 3.6532,-2.3432 25.25,-2.6372 l 22.277,-0.30318 v 8.5532 8.5532 h -9 -9 v -6 -6 h -9 -9 v 12.5 12.5 h -4.5112 -4.5112 l 8.6258,11.25 c 4.7442,6.1875 8.9795,11.25 9.4117,11.25 0.88436,0 16.942,-20.583 16.968,-21.75 0.0093,-0.4125 -1.7831,-0.75 -3.9831,-0.75 -4,0 -4,0 -4,-4 v -4 h 9.0756 9.0756 l -0.32559,13.923 c -0.30989,13.252 -0.44603,14.051 -2.8256,16.595 -4.711,5.0361 -6.6847,5.4874 -23.7,5.4191 -8.6898,-0.0349 -16.7,-0.43055 -17.8,-0.8793 z"
       style="fill:#666666;stroke:none;stroke-width:0.30000001;stroke-linecap:round;stroke-opacity:1"
       id="path4105"
       inkscape:connector-curvature="0" />
  </g>
  <g
     id="layer4"
     transform="matrix(0.47058668,0,0,0.48136568,1.4477509,-1.133856)"
     style="fill:#e6e6e6;stroke:none;stroke-opacity:1">
    <path
       inkscape:connector-curvature="0"
       id="path3119"
       style="fill:#e6e6e6;stroke:none;stroke-width:0.30000001;stroke-linecap:round;stroke-opacity:1"
       d="m 37.424,76.139 c -2.3122,-0.94329 -7.5,-5.9192 -7.5,-7.1937 0,-0.475 -2.6216,-0.86364 -5.8257,-0.86364 -4.7966,0 -6.2098,-0.40886 -8,-2.3144 -2.0055,-2.1347 -2.1743,-3.3384 -2.1743,-15.5 v -13.186 h 5 5 v 10.5 10.5 h 2.5 2.5 l 0.0354,-14.75 c 0.0382,-15.897 0.44398,-17.496 5.4374,-21.416 2.8821,-2.2627 3.6532,-2.3432 25.25,-2.6372 l 22.277,-0.30318 v 8.5532 8.5532 h -9 -9 v -6 -6 h -9 -9 v 12.5 12.5 h -4.5112 -4.5112 l 8.6258,11.25 c 4.7442,6.1875 8.9795,11.25 9.4117,11.25 0.88436,0 16.942,-20.583 16.968,-21.75 0.0093,-0.4125 -1.7831,-0.75 -3.9831,-0.75 -4,0 -4,0 -4,-4 v -4 h 9.0756 9.0756 l -0.32559,13.923 c -0.30989,13.252 -0.44603,14.051 -2.8256,16.595 -4.711,5.0361 -6.6847,5.4874 -23.7,5.4191 -8.6898,-0.0349 -16.7,-0.43055 -17.8,-0.8793 z" />
  </g>
  <g
     id="layer5"
     transform="translate(-216,2)">
    <rect
       id="rect3171"
       style="opacity:0.1;fill:url(#linearGradient3613);stroke:#ffffff;stroke-width:0.5;stroke-linecap:round;filter:url(#filter3794)"
       clip-path="url(#clipPath3613)"
       rx="12"
       ry="12"
       height="66"
       width="66"
       y="15"
       x="15" />
  </g>
</svg>
