<?xml version="1.0" encoding="UTF-8" standalone="no"?>
<svg
   xmlns:dc="http://purl.org/dc/elements/1.1/"
   xmlns:cc="http://creativecommons.org/ns#"
   xmlns:rdf="http://www.w3.org/1999/02/22-rdf-syntax-ns#"
   xmlns:svg="http://www.w3.org/2000/svg"
   xmlns="http://www.w3.org/2000/svg"
   xmlns:sodipodi="http://sodipodi.sourceforge.net/DTD/sodipodi-0.dtd"
   xmlns:inkscape="http://www.inkscape.org/namespaces/inkscape"
   width="16"
   height="16"
   viewBox="0 0 16 16"
   id="svg2"
   version="1.1"
   inkscape:version="0.91 r13725"
   sodipodi:docname="add-files-to-archive.svg">
  <metadata
     id="metadata16">
    <rdf:RDF>
      <cc:Work
         rdf:about="">
        <dc:format>image/svg+xml</dc:format>
        <dc:type
           rdf:resource="http://purl.org/dc/dcmitype/StillImage" />
      </cc:Work>
    </rdf:RDF>
  </metadata>
  <defs
     id="defs14" />
  <sodipodi:namedview
     pagecolor="#ffffff"
     bordercolor="#666666"
     borderopacity="1"
     objecttolerance="10"
     gridtolerance="10"
     guidetolerance="10"
     inkscape:pageopacity="0"
     inkscape:pageshadow="2"
     inkscape:window-width="743"
     inkscape:window-height="480"
     id="namedview12"
     showgrid="false"
     inkscape:zoom="14.75"
     inkscape:cx="8"
     inkscape:cy="8"
     inkscape:window-x="0"
     inkscape:window-y="32"
     inkscape:window-maximized="0"
     inkscape:current-layer="svg2" />
  <g
     style="fill-rule:evenodd"
     id="g4">
    <path
       style="fill:#888"
       d="M 1.4285715,2 8.571429,2 C 10,2 10,2 10,3.5555556 L 10,14.444444 C 10,16 10,16 8.571429,16 L 1.4285715,16 C 0,16 0,16 0,14.444444 L 0,3.5555556 C 0,2 0,2 1.4285715,2 z"
       id="path6" />
    <path
       style="fill:#e6e6e6"
       d="M 5.4285715,0 12.571429,0 C 14,0 14,0 14,1.5555556 L 14,12.444444 C 14,14 14,14 12.571429,14 L 5.4285715,14 C 4,14 4,14 4,12.444444 L 4,1.5555556 C 4,0 4,0 5.4285715,0 z"
       id="path8" />
  </g>
  <path
     style="fill:#859900"
     d="m 15.99996,9.9999265 -3,0 0,-2.9999999 -3,0 0,2.9999999 -3.0000003,0 0,2.9999995 3.0000003,0 0,3 3,0 0,-3 3,0 z"
     id="path10" />
</svg>
