<?xml version="1.0" encoding="UTF-8" standalone="no"?>
<svg
   xmlns:dc="http://purl.org/dc/elements/1.1/"
   xmlns:cc="http://creativecommons.org/ns#"
   xmlns:rdf="http://www.w3.org/1999/02/22-rdf-syntax-ns#"
   xmlns:svg="http://www.w3.org/2000/svg"
   xmlns="http://www.w3.org/2000/svg"
   xmlns:sodipodi="http://sodipodi.sourceforge.net/DTD/sodipodi-0.dtd"
   xmlns:inkscape="http://www.inkscape.org/namespaces/inkscape"
   width="16"
   height="16"
   viewBox="0 0 16 16"
   id="svg2"
   version="1.1"
   inkscape:version="0.91 r13725"
   sodipodi:docname="edit-cut.svg">
  <metadata
     id="metadata16">
    <rdf:RDF>
      <cc:Work
         rdf:about="">
        <dc:format>image/svg+xml</dc:format>
        <dc:type
           rdf:resource="http://purl.org/dc/dcmitype/StillImage" />
      </cc:Work>
    </rdf:RDF>
  </metadata>
  <defs
     id="defs14" />
  <sodipodi:namedview
     pagecolor="#ffffff"
     bordercolor="#666666"
     borderopacity="1"
     objecttolerance="10"
     gridtolerance="10"
     guidetolerance="10"
     inkscape:pageopacity="0"
     inkscape:pageshadow="2"
     inkscape:window-width="1360"
     inkscape:window-height="705"
     id="namedview12"
     showgrid="false"
     inkscape:zoom="63.665885"
     inkscape:cx="10.496591"
     inkscape:cy="5.4222398"
     inkscape:window-x="0"
     inkscape:window-y="32"
     inkscape:window-maximized="1"
     inkscape:current-layer="svg2" />
  <g
     transform="matrix(.8 0 0 .8 -3.2 -1.6)"
     id="g4">
    <path
       style="fill:#0088c8;fill-opacity:1"
       d="M 6,2 C 6,13 11,11 16.78,15.66 16.29,16.32 16,17.11 16,18 c 0,2.21 1.79,4 4,4 2.21,0 4,-1.79 4,-4 0,-0.36 -0.1,-0.7 -0.16,-1.03 L 24,17 23.78,16.72 c -0.3,-0.88 -0.91,-1.6 -1.69,-2.1 z m 14,14 c 1.1,0 2,0.9 2,2 0,1.1 -0.9,2 -2,2 -1.1,0 -2,-0.9 -2,-2 0,-1.1 0.9,-2 2,-2 z"
       id="path6" />
  </g>
  <g
     transform="matrix(.8 0 0 .8 -1.6 -1.6)"
     id="g8">
    <path
       style="fill:#93aca7"
       d="M 20,2 C 20,13 15,11 9.22,15.66 9.71,16.32 10,17.11 10,18 10,20.21 8.21,22 6,22 3.79,22 2,20.21 2,18 2,17.64 2.07,17.3 2.16,16.97 L 2,17 2.22,16.72 c 0.3,-0.88 0.91,-1.6 1.69,-2.1 z M 6,16 c -1.1,0 -2,0.9 -2,2 0,1.1 0.9,2 2,2 1.1,0 2,-0.9 2,-2 0,-1.1 -0.9,-2 -2,-2 z"
       id="path10" />
  </g>
</svg>
