<?xml version="1.0" encoding="UTF-8" standalone="no"?>
<svg
   xmlns:dc="http://purl.org/dc/elements/1.1/"
   xmlns:cc="http://creativecommons.org/ns#"
   xmlns:rdf="http://www.w3.org/1999/02/22-rdf-syntax-ns#"
   xmlns:svg="http://www.w3.org/2000/svg"
   xmlns="http://www.w3.org/2000/svg"
   height="16"
   width="16"
   version="1.1"
   id="svg2"
   viewBox="0 0 16 16">
  <metadata
     id="metadata16">
    <rdf:RDF>
      <cc:Work
         rdf:about="">
        <dc:format>image/svg+xml</dc:format>
        <dc:type
           rdf:resource="http://purl.org/dc/dcmitype/StillImage" />
        <dc:title></dc:title>
      </cc:Work>
    </rdf:RDF>
  </metadata>
  <defs
     id="defs14" />
  <path
     id="path4"
     style="fill:none;fill-opacity:1;stroke:#888888;stroke-width:0.35852087;stroke-linejoin:round;stroke-opacity:1"
     d="m 7.9912238,6.8092382 c 0.6969774,0 1.2626403,0.5586803 1.2626403,1.2470543 0,0.688374 -0.5656629,1.2470543 -1.2626403,1.2470543 -0.6969773,0 -1.2626401,-0.5586803 -1.2626401,-1.2470543 0,-0.688374 0.5656628,-1.2470543 1.2626401,-1.2470543 z" />
  <path
     id="path6"
     style="fill:#d1d1d1;fill-opacity:1;stroke:none"
     d="m 7.9912238,0.93026791 c -4.0007656,0 -7.21508679,3.17606919 -7.21508679,7.12602459 0,3.9513815 3.21576419,7.1260245 7.21508679,7.1260245 4.0007662,0 7.2150872,-3.17607 7.2150872,-7.1260245 0,-3.9513806 -3.215764,-7.12602459 -7.2150872,-7.12602459 m 0,4.27561489 c 1.5894837,0 2.8860342,1.2805465 2.8860342,2.8504097 0,1.5698634 -1.2965505,2.8504095 -2.8860342,2.8504095 -1.5894836,0 -2.8860347,-1.2805461 -2.8860347,-2.8504095 0,-1.5698632 1.2965511,-2.8504097 2.8860347,-2.8504097 z" />
  <path
     id="path8"
     style="color:#000000;white-space:normal;display:inline;visibility:visible;opacity:1;isolation:auto;mix-blend-mode:normal;color-interpolation:sRGB;color-interpolation-filters:linearRGB;solid-color:#000000;solid-opacity:1;fill:#888888;fill-opacity:1;fill-rule:nonzero;stroke:none;color-rendering:auto;image-rendering:auto;shape-rendering:auto"
     white-space="normal"
     isolation="auto"
     mix-blend-mode="normal"
     d="m 7.9912238,0.57396666 c -4.1926869,0 -7.57584109,3.34139304 -7.57584109,7.48232584 0,4.1409335 3.38315419,7.4823255 7.57584109,7.4823255 4.1926872,0 7.5758412,-3.341392 7.5758412,-7.4823255 0,-4.1409328 -3.383154,-7.48232584 -7.5758412,-7.48232584 m 0,0.71260254 c 3.8059582,0 6.8543322,3.0107454 6.8543322,6.7697233 0,3.7589775 -3.048374,6.7697235 -6.8543322,6.7697235 -3.8059583,0 -6.8543324,-3.010746 -6.8543324,-6.7697235 0,-3.7589779 3.0483741,-6.7697233 6.8543324,-6.7697233 m 0,3.5630123 c -1.7857339,0 -3.2467891,1.4430199 -3.2467891,3.206711 0,1.7636912 1.4610552,3.2067105 3.2467891,3.2067105 1.7857347,0 3.2467902,-1.4430193 3.2467902,-3.2067105 0,-1.7636911 -1.4610555,-3.206711 -3.2467902,-3.206711 z m 0,0.7126025 c 1.3935943,0 2.5252802,1.1177169 2.5252802,2.4941085 0,1.376392 -1.1316859,2.4941085 -2.5252802,2.4941085 -1.393594,0 -2.5252804,-1.1177165 -2.5252804,-2.4941085 0,-1.3763916 1.1316864,-2.4941085 2.5252804,-2.4941085 z" />
  <path
     id="path10"
     style="fill:#d40000;fill-opacity:1;stroke:none"
     d="m 3.780169,4.5738115 3.6323517,3.6930348 -3.70925,3.6108797 0.02136,-2.0288645 -3.67080104,-0.04108 0.03417431,-3.2461839 3.67080043,0.041078 z" />
</svg>
